<mxfile host="app.diagrams.net" modified="2024-03-07T14:59:02.289Z" agent="Mozilla/5.0 (Macintosh; Intel Mac OS X 10.15; rv:123.0) Gecko/20100101 Firefox/123.0" etag="02MaWlJOLlXn076pGUKl" version="24.0.2" type="device">
  <diagram id="D4XD-stfcbqHm6u8IKLA" name="Page-1">
    <mxGraphModel dx="3178" dy="3310" grid="1" gridSize="10" guides="1" tooltips="1" connect="1" arrows="1" fold="1" page="1" pageScale="1" pageWidth="850" pageHeight="1100" math="0" shadow="0">
      <root>
        <mxCell id="0" />
        <mxCell id="1" parent="0" />
        <mxCell id="s9SOw5TSL-tmGERgOmM0-3" style="rounded=0;orthogonalLoop=1;jettySize=auto;html=1;exitX=0;exitY=1;exitDx=0;exitDy=0;entryX=1;entryY=0;entryDx=0;entryDy=0;strokeWidth=5;" parent="1" source="s9SOw5TSL-tmGERgOmM0-1" target="s9SOw5TSL-tmGERgOmM0-2" edge="1">
          <mxGeometry relative="1" as="geometry" />
        </mxCell>
        <mxCell id="s9SOw5TSL-tmGERgOmM0-5" style="rounded=0;orthogonalLoop=1;jettySize=auto;html=1;exitX=1;exitY=1;exitDx=0;exitDy=0;entryX=0;entryY=0;entryDx=0;entryDy=0;strokeWidth=5;" parent="1" source="s9SOw5TSL-tmGERgOmM0-1" target="s9SOw5TSL-tmGERgOmM0-4" edge="1">
          <mxGeometry relative="1" as="geometry" />
        </mxCell>
        <mxCell id="s9SOw5TSL-tmGERgOmM0-1" value="&lt;font style=&quot;font-size: 40px;&quot;&gt;7&lt;/font&gt;" style="ellipse;whiteSpace=wrap;html=1;aspect=fixed;strokeWidth=5;" parent="1" vertex="1">
          <mxGeometry x="210" y="-270" width="80" height="80" as="geometry" />
        </mxCell>
        <mxCell id="s9SOw5TSL-tmGERgOmM0-9" style="edgeStyle=none;shape=connector;rounded=0;orthogonalLoop=1;jettySize=auto;html=1;exitX=0;exitY=1;exitDx=0;exitDy=0;entryX=1;entryY=0;entryDx=0;entryDy=0;labelBackgroundColor=default;strokeColor=default;strokeWidth=5;fontFamily=Helvetica;fontSize=11;fontColor=default;endArrow=classic;" parent="1" source="s9SOw5TSL-tmGERgOmM0-2" target="s9SOw5TSL-tmGERgOmM0-8" edge="1">
          <mxGeometry relative="1" as="geometry" />
        </mxCell>
        <mxCell id="VsR7F8Zh5hgwnbF70GJV-5" style="rounded=0;orthogonalLoop=1;jettySize=auto;html=1;strokeWidth=5;" parent="1" source="s9SOw5TSL-tmGERgOmM0-2" target="VsR7F8Zh5hgwnbF70GJV-2" edge="1">
          <mxGeometry relative="1" as="geometry" />
        </mxCell>
        <mxCell id="s9SOw5TSL-tmGERgOmM0-2" value="&lt;font style=&quot;font-size: 36px;&quot;&gt;2&lt;/font&gt;" style="ellipse;whiteSpace=wrap;html=1;aspect=fixed;strokeWidth=5;" parent="1" vertex="1">
          <mxGeometry x="75" y="-110" width="80" height="80" as="geometry" />
        </mxCell>
        <mxCell id="s9SOw5TSL-tmGERgOmM0-4" value="8" style="ellipse;whiteSpace=wrap;html=1;aspect=fixed;strokeWidth=5;fontSize=40;" parent="1" vertex="1">
          <mxGeometry x="320" y="-110" width="80" height="80" as="geometry" />
        </mxCell>
        <mxCell id="s9SOw5TSL-tmGERgOmM0-8" value="&lt;font style=&quot;font-size: 40px;&quot;&gt;1&lt;/font&gt;" style="ellipse;whiteSpace=wrap;html=1;aspect=fixed;strokeWidth=5;" parent="1" vertex="1">
          <mxGeometry x="-50" y="50" width="80" height="80" as="geometry" />
        </mxCell>
        <mxCell id="VsR7F8Zh5hgwnbF70GJV-1" value="&lt;font style=&quot;font-size: 42px;&quot;&gt;1) BST Count Odds&lt;font style=&quot;font-size: 42px;&quot;&gt;&lt;br&gt;&lt;/font&gt;&lt;/font&gt;" style="text;html=1;align=center;verticalAlign=middle;resizable=0;points=[];autosize=1;strokeColor=none;fillColor=none;" parent="1" vertex="1">
          <mxGeometry x="-130" y="430" width="390" height="60" as="geometry" />
        </mxCell>
        <mxCell id="VsR7F8Zh5hgwnbF70GJV-2" value="&lt;font style=&quot;font-size: 40px;&quot;&gt;5&lt;/font&gt;" style="ellipse;whiteSpace=wrap;html=1;aspect=fixed;strokeWidth=5;" parent="1" vertex="1">
          <mxGeometry x="160" y="60" width="80" height="80" as="geometry" />
        </mxCell>
        <mxCell id="VsR7F8Zh5hgwnbF70GJV-6" style="rounded=0;orthogonalLoop=1;jettySize=auto;html=1;exitX=0;exitY=1;exitDx=0;exitDy=0;entryX=1;entryY=0;entryDx=0;entryDy=0;strokeWidth=5;" parent="1" source="VsR7F8Zh5hgwnbF70GJV-8" target="VsR7F8Zh5hgwnbF70GJV-11" edge="1">
          <mxGeometry relative="1" as="geometry" />
        </mxCell>
        <mxCell id="VsR7F8Zh5hgwnbF70GJV-7" style="rounded=0;orthogonalLoop=1;jettySize=auto;html=1;exitX=1;exitY=1;exitDx=0;exitDy=0;entryX=0;entryY=0;entryDx=0;entryDy=0;strokeWidth=5;" parent="1" source="VsR7F8Zh5hgwnbF70GJV-8" target="VsR7F8Zh5hgwnbF70GJV-12" edge="1">
          <mxGeometry relative="1" as="geometry" />
        </mxCell>
        <mxCell id="VsR7F8Zh5hgwnbF70GJV-8" value="&lt;font style=&quot;font-size: 40px;&quot;&gt;7&lt;/font&gt;" style="ellipse;whiteSpace=wrap;html=1;aspect=fixed;strokeWidth=5;fillColor=#ffe6cc;strokeColor=#d79b00;" parent="1" vertex="1">
          <mxGeometry x="300" y="2540" width="80" height="80" as="geometry" />
        </mxCell>
        <mxCell id="VsR7F8Zh5hgwnbF70GJV-9" style="edgeStyle=none;shape=connector;rounded=0;orthogonalLoop=1;jettySize=auto;html=1;exitX=0;exitY=1;exitDx=0;exitDy=0;entryX=1;entryY=0;entryDx=0;entryDy=0;labelBackgroundColor=default;strokeColor=default;strokeWidth=5;fontFamily=Helvetica;fontSize=11;fontColor=default;endArrow=classic;" parent="1" source="VsR7F8Zh5hgwnbF70GJV-11" target="VsR7F8Zh5hgwnbF70GJV-13" edge="1">
          <mxGeometry relative="1" as="geometry" />
        </mxCell>
        <mxCell id="VsR7F8Zh5hgwnbF70GJV-10" style="rounded=0;orthogonalLoop=1;jettySize=auto;html=1;strokeWidth=5;" parent="1" source="VsR7F8Zh5hgwnbF70GJV-11" target="VsR7F8Zh5hgwnbF70GJV-15" edge="1">
          <mxGeometry relative="1" as="geometry" />
        </mxCell>
        <mxCell id="VsR7F8Zh5hgwnbF70GJV-11" value="&lt;font style=&quot;font-size: 36px;&quot;&gt;2&lt;/font&gt;" style="ellipse;whiteSpace=wrap;html=1;aspect=fixed;strokeWidth=5;fillColor=#f8cecc;strokeColor=#b85450;" parent="1" vertex="1">
          <mxGeometry x="105" y="2700" width="80" height="80" as="geometry" />
        </mxCell>
        <mxCell id="VsR7F8Zh5hgwnbF70GJV-19" style="edgeStyle=none;shape=connector;rounded=0;orthogonalLoop=1;jettySize=auto;html=1;labelBackgroundColor=default;strokeColor=default;strokeWidth=5;align=center;verticalAlign=middle;fontFamily=Helvetica;fontSize=11;fontColor=default;endArrow=classic;" parent="1" source="VsR7F8Zh5hgwnbF70GJV-12" target="VsR7F8Zh5hgwnbF70GJV-18" edge="1">
          <mxGeometry relative="1" as="geometry" />
        </mxCell>
        <mxCell id="VsR7F8Zh5hgwnbF70GJV-21" style="edgeStyle=none;shape=connector;rounded=0;orthogonalLoop=1;jettySize=auto;html=1;labelBackgroundColor=default;strokeColor=default;strokeWidth=5;align=center;verticalAlign=middle;fontFamily=Helvetica;fontSize=11;fontColor=default;endArrow=classic;" parent="1" source="VsR7F8Zh5hgwnbF70GJV-12" target="VsR7F8Zh5hgwnbF70GJV-20" edge="1">
          <mxGeometry relative="1" as="geometry" />
        </mxCell>
        <mxCell id="VsR7F8Zh5hgwnbF70GJV-12" value="9" style="ellipse;whiteSpace=wrap;html=1;aspect=fixed;strokeWidth=5;fontSize=40;fillColor=#f8cecc;strokeColor=#b85450;" parent="1" vertex="1">
          <mxGeometry x="490" y="2700" width="80" height="80" as="geometry" />
        </mxCell>
        <mxCell id="VsR7F8Zh5hgwnbF70GJV-13" value="&lt;font style=&quot;font-size: 40px;&quot;&gt;1&lt;/font&gt;" style="ellipse;whiteSpace=wrap;html=1;aspect=fixed;strokeWidth=5;fillColor=#d5e8d4;strokeColor=#82b366;" parent="1" vertex="1">
          <mxGeometry x="-50" y="2860" width="80" height="80" as="geometry" />
        </mxCell>
        <mxCell id="VsR7F8Zh5hgwnbF70GJV-14" value="&lt;font style=&quot;font-size: 42px;&quot;&gt;2) BST &lt;font style=&quot;font-size: 42px;&quot;&gt;Count Internal&lt;br&gt;&lt;/font&gt;&lt;/font&gt;" style="text;html=1;align=center;verticalAlign=middle;resizable=0;points=[];autosize=1;strokeColor=none;fillColor=none;" parent="1" vertex="1">
          <mxGeometry x="-140" y="1340" width="430" height="60" as="geometry" />
        </mxCell>
        <mxCell id="VsR7F8Zh5hgwnbF70GJV-17" style="edgeStyle=none;shape=connector;rounded=0;orthogonalLoop=1;jettySize=auto;html=1;labelBackgroundColor=default;strokeColor=default;strokeWidth=5;align=center;verticalAlign=middle;fontFamily=Helvetica;fontSize=11;fontColor=default;endArrow=classic;" parent="1" source="VsR7F8Zh5hgwnbF70GJV-15" target="VsR7F8Zh5hgwnbF70GJV-16" edge="1">
          <mxGeometry relative="1" as="geometry" />
        </mxCell>
        <mxCell id="VsR7F8Zh5hgwnbF70GJV-15" value="&lt;font style=&quot;font-size: 40px;&quot;&gt;5&lt;/font&gt;" style="ellipse;whiteSpace=wrap;html=1;aspect=fixed;strokeWidth=5;fillColor=#d5e8d4;strokeColor=#82b366;" parent="1" vertex="1">
          <mxGeometry x="190" y="2870" width="80" height="80" as="geometry" />
        </mxCell>
        <mxCell id="VsR7F8Zh5hgwnbF70GJV-16" value="&lt;font style=&quot;font-size: 40px;&quot;&gt;4&lt;/font&gt;" style="ellipse;whiteSpace=wrap;html=1;aspect=fixed;strokeWidth=5;fontFamily=Helvetica;fontSize=11;fillColor=#dae8fc;strokeColor=#6c8ebf;" parent="1" vertex="1">
          <mxGeometry x="100" y="3010" width="80" height="80" as="geometry" />
        </mxCell>
        <mxCell id="VsR7F8Zh5hgwnbF70GJV-18" value="8" style="ellipse;whiteSpace=wrap;html=1;aspect=fixed;strokeWidth=5;fontSize=40;fontFamily=Helvetica;fillColor=#d5e8d4;strokeColor=#82b366;" parent="1" vertex="1">
          <mxGeometry x="380" y="2850" width="80" height="80" as="geometry" />
        </mxCell>
        <mxCell id="VsR7F8Zh5hgwnbF70GJV-20" value="10" style="ellipse;whiteSpace=wrap;html=1;aspect=fixed;strokeWidth=5;fontSize=40;fontFamily=Helvetica;fillColor=#d5e8d4;strokeColor=#82b366;" parent="1" vertex="1">
          <mxGeometry x="590" y="2840" width="80" height="80" as="geometry" />
        </mxCell>
        <mxCell id="VsR7F8Zh5hgwnbF70GJV-22" style="rounded=0;orthogonalLoop=1;jettySize=auto;html=1;exitX=0;exitY=1;exitDx=0;exitDy=0;entryX=1;entryY=0;entryDx=0;entryDy=0;strokeWidth=5;" parent="1" source="VsR7F8Zh5hgwnbF70GJV-24" target="VsR7F8Zh5hgwnbF70GJV-27" edge="1">
          <mxGeometry relative="1" as="geometry" />
        </mxCell>
        <mxCell id="VsR7F8Zh5hgwnbF70GJV-23" style="rounded=0;orthogonalLoop=1;jettySize=auto;html=1;exitX=1;exitY=1;exitDx=0;exitDy=0;entryX=0;entryY=0;entryDx=0;entryDy=0;strokeWidth=5;" parent="1" source="VsR7F8Zh5hgwnbF70GJV-24" target="VsR7F8Zh5hgwnbF70GJV-30" edge="1">
          <mxGeometry relative="1" as="geometry" />
        </mxCell>
        <mxCell id="VsR7F8Zh5hgwnbF70GJV-24" value="&lt;font style=&quot;font-size: 40px;&quot;&gt;5&lt;/font&gt;" style="ellipse;whiteSpace=wrap;html=1;aspect=fixed;strokeWidth=5;fillColor=#d5e8d4;strokeColor=#82b366;" parent="1" vertex="1">
          <mxGeometry x="1130" y="-300" width="80" height="80" as="geometry" />
        </mxCell>
        <mxCell id="VsR7F8Zh5hgwnbF70GJV-25" style="edgeStyle=none;shape=connector;rounded=0;orthogonalLoop=1;jettySize=auto;html=1;exitX=0;exitY=1;exitDx=0;exitDy=0;entryX=1;entryY=0;entryDx=0;entryDy=0;labelBackgroundColor=default;strokeColor=default;strokeWidth=5;fontFamily=Helvetica;fontSize=11;fontColor=default;endArrow=classic;" parent="1" source="VsR7F8Zh5hgwnbF70GJV-27" target="VsR7F8Zh5hgwnbF70GJV-31" edge="1">
          <mxGeometry relative="1" as="geometry" />
        </mxCell>
        <mxCell id="VsR7F8Zh5hgwnbF70GJV-26" style="rounded=0;orthogonalLoop=1;jettySize=auto;html=1;strokeWidth=5;" parent="1" source="VsR7F8Zh5hgwnbF70GJV-27" target="VsR7F8Zh5hgwnbF70GJV-34" edge="1">
          <mxGeometry relative="1" as="geometry" />
        </mxCell>
        <mxCell id="VsR7F8Zh5hgwnbF70GJV-27" value="&lt;font style=&quot;font-size: 36px;&quot;&gt;2&lt;/font&gt;" style="ellipse;whiteSpace=wrap;html=1;aspect=fixed;strokeWidth=5;fillColor=#d5e8d4;strokeColor=#82b366;" parent="1" vertex="1">
          <mxGeometry x="935" y="-140" width="80" height="80" as="geometry" />
        </mxCell>
        <mxCell id="VsR7F8Zh5hgwnbF70GJV-28" style="edgeStyle=none;shape=connector;rounded=0;orthogonalLoop=1;jettySize=auto;html=1;labelBackgroundColor=default;strokeColor=default;strokeWidth=5;align=center;verticalAlign=middle;fontFamily=Helvetica;fontSize=11;fontColor=default;endArrow=classic;" parent="1" source="VsR7F8Zh5hgwnbF70GJV-30" target="VsR7F8Zh5hgwnbF70GJV-36" edge="1">
          <mxGeometry relative="1" as="geometry" />
        </mxCell>
        <mxCell id="VsR7F8Zh5hgwnbF70GJV-29" style="edgeStyle=none;shape=connector;rounded=0;orthogonalLoop=1;jettySize=auto;html=1;labelBackgroundColor=default;strokeColor=default;strokeWidth=5;align=center;verticalAlign=middle;fontFamily=Helvetica;fontSize=11;fontColor=default;endArrow=classic;" parent="1" source="VsR7F8Zh5hgwnbF70GJV-30" target="VsR7F8Zh5hgwnbF70GJV-37" edge="1">
          <mxGeometry relative="1" as="geometry" />
        </mxCell>
        <mxCell id="VsR7F8Zh5hgwnbF70GJV-30" value="6" style="ellipse;whiteSpace=wrap;html=1;aspect=fixed;strokeWidth=5;fontSize=40;fillColor=#d5e8d4;strokeColor=#82b366;" parent="1" vertex="1">
          <mxGeometry x="1320" y="-140" width="80" height="80" as="geometry" />
        </mxCell>
        <mxCell id="VsR7F8Zh5hgwnbF70GJV-31" value="&lt;font style=&quot;font-size: 40px;&quot;&gt;1&lt;/font&gt;" style="ellipse;whiteSpace=wrap;html=1;aspect=fixed;strokeWidth=5;" parent="1" vertex="1">
          <mxGeometry x="780" y="20" width="80" height="80" as="geometry" />
        </mxCell>
        <mxCell id="VsR7F8Zh5hgwnbF70GJV-32" value="&lt;font style=&quot;font-size: 42px;&quot;&gt;3) BST Node Level&lt;font style=&quot;font-size: 42px;&quot;&gt;&lt;br&gt;&lt;/font&gt;&lt;/font&gt;" style="text;html=1;align=center;verticalAlign=middle;resizable=0;points=[];autosize=1;strokeColor=none;fillColor=none;" parent="1" vertex="1">
          <mxGeometry x="-140" y="2320" width="380" height="60" as="geometry" />
        </mxCell>
        <mxCell id="VsR7F8Zh5hgwnbF70GJV-33" style="edgeStyle=none;shape=connector;rounded=0;orthogonalLoop=1;jettySize=auto;html=1;labelBackgroundColor=default;strokeColor=default;strokeWidth=5;align=center;verticalAlign=middle;fontFamily=Helvetica;fontSize=11;fontColor=default;endArrow=classic;" parent="1" source="VsR7F8Zh5hgwnbF70GJV-34" target="VsR7F8Zh5hgwnbF70GJV-35" edge="1">
          <mxGeometry relative="1" as="geometry" />
        </mxCell>
        <mxCell id="VsR7F8Zh5hgwnbF70GJV-34" value="&lt;font style=&quot;font-size: 40px;&quot;&gt;3&lt;/font&gt;" style="ellipse;whiteSpace=wrap;html=1;aspect=fixed;strokeWidth=5;fillColor=#d5e8d4;strokeColor=#82b366;" parent="1" vertex="1">
          <mxGeometry x="1020" y="30" width="80" height="80" as="geometry" />
        </mxCell>
        <mxCell id="VsR7F8Zh5hgwnbF70GJV-35" value="&lt;font style=&quot;font-size: 40px;&quot;&gt;4&lt;/font&gt;" style="ellipse;whiteSpace=wrap;html=1;aspect=fixed;strokeWidth=5;fontFamily=Helvetica;fontSize=11;fontColor=default;" parent="1" vertex="1">
          <mxGeometry x="930" y="170" width="80" height="80" as="geometry" />
        </mxCell>
        <mxCell id="VsR7F8Zh5hgwnbF70GJV-36" value="7" style="ellipse;whiteSpace=wrap;html=1;aspect=fixed;strokeWidth=5;fontSize=40;fontFamily=Helvetica;fontColor=default;" parent="1" vertex="1">
          <mxGeometry x="1210" y="10" width="80" height="80" as="geometry" />
        </mxCell>
        <mxCell id="VsR7F8Zh5hgwnbF70GJV-37" value="10" style="ellipse;whiteSpace=wrap;html=1;aspect=fixed;strokeWidth=5;fontSize=40;fontFamily=Helvetica;fontColor=default;" parent="1" vertex="1">
          <mxGeometry x="1420" width="80" height="80" as="geometry" />
        </mxCell>
        <mxCell id="VsR7F8Zh5hgwnbF70GJV-38" style="rounded=0;orthogonalLoop=1;jettySize=auto;html=1;exitX=0;exitY=1;exitDx=0;exitDy=0;entryX=1;entryY=0;entryDx=0;entryDy=0;strokeWidth=5;" parent="1" source="VsR7F8Zh5hgwnbF70GJV-40" target="VsR7F8Zh5hgwnbF70GJV-43" edge="1">
          <mxGeometry relative="1" as="geometry" />
        </mxCell>
        <mxCell id="VsR7F8Zh5hgwnbF70GJV-39" style="rounded=0;orthogonalLoop=1;jettySize=auto;html=1;exitX=1;exitY=1;exitDx=0;exitDy=0;entryX=0;entryY=0;entryDx=0;entryDy=0;strokeWidth=5;" parent="1" source="VsR7F8Zh5hgwnbF70GJV-40" target="VsR7F8Zh5hgwnbF70GJV-46" edge="1">
          <mxGeometry relative="1" as="geometry" />
        </mxCell>
        <mxCell id="VsR7F8Zh5hgwnbF70GJV-40" value="&lt;font style=&quot;font-size: 40px;&quot;&gt;7&lt;/font&gt;" style="ellipse;whiteSpace=wrap;html=1;aspect=fixed;strokeWidth=5;fillColor=#d5e8d4;strokeColor=#82b366;" parent="1" vertex="1">
          <mxGeometry x="280" y="1520" width="80" height="80" as="geometry" />
        </mxCell>
        <mxCell id="VsR7F8Zh5hgwnbF70GJV-41" style="edgeStyle=none;shape=connector;rounded=0;orthogonalLoop=1;jettySize=auto;html=1;exitX=0;exitY=1;exitDx=0;exitDy=0;entryX=1;entryY=0;entryDx=0;entryDy=0;labelBackgroundColor=default;strokeColor=default;strokeWidth=5;fontFamily=Helvetica;fontSize=11;fontColor=default;endArrow=classic;" parent="1" source="VsR7F8Zh5hgwnbF70GJV-43" target="VsR7F8Zh5hgwnbF70GJV-47" edge="1">
          <mxGeometry relative="1" as="geometry" />
        </mxCell>
        <mxCell id="VsR7F8Zh5hgwnbF70GJV-42" style="rounded=0;orthogonalLoop=1;jettySize=auto;html=1;strokeWidth=5;" parent="1" source="VsR7F8Zh5hgwnbF70GJV-43" target="VsR7F8Zh5hgwnbF70GJV-49" edge="1">
          <mxGeometry relative="1" as="geometry" />
        </mxCell>
        <mxCell id="VsR7F8Zh5hgwnbF70GJV-43" value="&lt;font style=&quot;font-size: 36px;&quot;&gt;2&lt;/font&gt;" style="ellipse;whiteSpace=wrap;html=1;aspect=fixed;strokeWidth=5;fillColor=#d5e8d4;strokeColor=#82b366;" parent="1" vertex="1">
          <mxGeometry x="85" y="1680" width="80" height="80" as="geometry" />
        </mxCell>
        <mxCell id="VsR7F8Zh5hgwnbF70GJV-44" style="edgeStyle=none;shape=connector;rounded=0;orthogonalLoop=1;jettySize=auto;html=1;labelBackgroundColor=default;strokeColor=default;strokeWidth=5;align=center;verticalAlign=middle;fontFamily=Helvetica;fontSize=11;fontColor=default;endArrow=classic;" parent="1" source="VsR7F8Zh5hgwnbF70GJV-46" target="VsR7F8Zh5hgwnbF70GJV-51" edge="1">
          <mxGeometry relative="1" as="geometry" />
        </mxCell>
        <mxCell id="VsR7F8Zh5hgwnbF70GJV-45" style="edgeStyle=none;shape=connector;rounded=0;orthogonalLoop=1;jettySize=auto;html=1;labelBackgroundColor=default;strokeColor=default;strokeWidth=5;align=center;verticalAlign=middle;fontFamily=Helvetica;fontSize=11;fontColor=default;endArrow=classic;" parent="1" source="VsR7F8Zh5hgwnbF70GJV-46" target="VsR7F8Zh5hgwnbF70GJV-52" edge="1">
          <mxGeometry relative="1" as="geometry" />
        </mxCell>
        <mxCell id="VsR7F8Zh5hgwnbF70GJV-46" value="9" style="ellipse;whiteSpace=wrap;html=1;aspect=fixed;strokeWidth=5;fontSize=40;fillColor=#d5e8d4;strokeColor=#82b366;" parent="1" vertex="1">
          <mxGeometry x="470" y="1680" width="80" height="80" as="geometry" />
        </mxCell>
        <mxCell id="VsR7F8Zh5hgwnbF70GJV-47" value="&lt;font style=&quot;font-size: 40px;&quot;&gt;1&lt;/font&gt;" style="ellipse;whiteSpace=wrap;html=1;aspect=fixed;strokeWidth=5;" parent="1" vertex="1">
          <mxGeometry x="-70" y="1840" width="80" height="80" as="geometry" />
        </mxCell>
        <mxCell id="VsR7F8Zh5hgwnbF70GJV-48" style="edgeStyle=none;shape=connector;rounded=0;orthogonalLoop=1;jettySize=auto;html=1;labelBackgroundColor=default;strokeColor=default;strokeWidth=5;align=center;verticalAlign=middle;fontFamily=Helvetica;fontSize=11;fontColor=default;endArrow=classic;" parent="1" source="VsR7F8Zh5hgwnbF70GJV-49" target="VsR7F8Zh5hgwnbF70GJV-50" edge="1">
          <mxGeometry relative="1" as="geometry" />
        </mxCell>
        <mxCell id="VsR7F8Zh5hgwnbF70GJV-49" value="&lt;font style=&quot;font-size: 40px;&quot;&gt;5&lt;/font&gt;" style="ellipse;whiteSpace=wrap;html=1;aspect=fixed;strokeWidth=5;fillColor=#d5e8d4;strokeColor=#82b366;" parent="1" vertex="1">
          <mxGeometry x="170" y="1850" width="80" height="80" as="geometry" />
        </mxCell>
        <mxCell id="VsR7F8Zh5hgwnbF70GJV-50" value="&lt;font style=&quot;font-size: 40px;&quot;&gt;4&lt;/font&gt;" style="ellipse;whiteSpace=wrap;html=1;aspect=fixed;strokeWidth=5;fontFamily=Helvetica;fontSize=11;fontColor=default;" parent="1" vertex="1">
          <mxGeometry x="80" y="1990" width="80" height="80" as="geometry" />
        </mxCell>
        <mxCell id="VsR7F8Zh5hgwnbF70GJV-51" value="8" style="ellipse;whiteSpace=wrap;html=1;aspect=fixed;strokeWidth=5;fontSize=40;fontFamily=Helvetica;fontColor=default;" parent="1" vertex="1">
          <mxGeometry x="360" y="1830" width="80" height="80" as="geometry" />
        </mxCell>
        <mxCell id="VsR7F8Zh5hgwnbF70GJV-52" value="10" style="ellipse;whiteSpace=wrap;html=1;aspect=fixed;strokeWidth=5;fontSize=40;fontFamily=Helvetica;fontColor=default;" parent="1" vertex="1">
          <mxGeometry x="570" y="1820" width="80" height="80" as="geometry" />
        </mxCell>
        <mxCell id="y-h5g1hqfYsxv_BUcOza-1" value="&lt;font style=&quot;font-size: 31px;&quot;&gt;level: 3&lt;br&gt;&lt;/font&gt;" style="text;html=1;align=center;verticalAlign=middle;resizable=0;points=[];autosize=1;strokeColor=none;fillColor=none;" vertex="1" parent="1">
          <mxGeometry x="-230" y="3030" width="120" height="50" as="geometry" />
        </mxCell>
        <mxCell id="y-h5g1hqfYsxv_BUcOza-2" value="&lt;font style=&quot;font-size: 31px;&quot;&gt;level: 2&lt;br&gt;&lt;/font&gt;" style="text;html=1;align=center;verticalAlign=middle;resizable=0;points=[];autosize=1;strokeColor=none;fillColor=none;" vertex="1" parent="1">
          <mxGeometry x="-230" y="2860" width="120" height="50" as="geometry" />
        </mxCell>
        <mxCell id="y-h5g1hqfYsxv_BUcOza-3" value="&lt;font style=&quot;font-size: 31px;&quot;&gt;level: 1&lt;br&gt;&lt;/font&gt;" style="text;html=1;align=center;verticalAlign=middle;resizable=0;points=[];autosize=1;strokeColor=none;fillColor=none;" vertex="1" parent="1">
          <mxGeometry x="-230" y="2700" width="120" height="50" as="geometry" />
        </mxCell>
        <mxCell id="y-h5g1hqfYsxv_BUcOza-4" value="&lt;font style=&quot;font-size: 31px;&quot;&gt;level: 0&lt;br&gt;&lt;/font&gt;" style="text;html=1;align=center;verticalAlign=middle;resizable=0;points=[];autosize=1;strokeColor=none;fillColor=none;" vertex="1" parent="1">
          <mxGeometry x="-240" y="2555" width="120" height="50" as="geometry" />
        </mxCell>
        <mxCell id="y-h5g1hqfYsxv_BUcOza-5" style="rounded=0;orthogonalLoop=1;jettySize=auto;html=1;exitX=0;exitY=1;exitDx=0;exitDy=0;entryX=1;entryY=0;entryDx=0;entryDy=0;strokeWidth=5;" edge="1" parent="1" source="y-h5g1hqfYsxv_BUcOza-7" target="y-h5g1hqfYsxv_BUcOza-10">
          <mxGeometry relative="1" as="geometry" />
        </mxCell>
        <mxCell id="y-h5g1hqfYsxv_BUcOza-6" style="rounded=0;orthogonalLoop=1;jettySize=auto;html=1;exitX=1;exitY=1;exitDx=0;exitDy=0;entryX=0;entryY=0;entryDx=0;entryDy=0;strokeWidth=5;" edge="1" parent="1" source="y-h5g1hqfYsxv_BUcOza-7" target="y-h5g1hqfYsxv_BUcOza-13">
          <mxGeometry relative="1" as="geometry" />
        </mxCell>
        <mxCell id="y-h5g1hqfYsxv_BUcOza-7" value="&lt;font style=&quot;font-size: 40px;&quot;&gt;7&lt;/font&gt;" style="ellipse;whiteSpace=wrap;html=1;aspect=fixed;strokeWidth=5;fillColor=#d5e8d4;strokeColor=#82b366;" vertex="1" parent="1">
          <mxGeometry x="250" y="590" width="80" height="80" as="geometry" />
        </mxCell>
        <mxCell id="y-h5g1hqfYsxv_BUcOza-8" style="edgeStyle=none;shape=connector;rounded=0;orthogonalLoop=1;jettySize=auto;html=1;exitX=0;exitY=1;exitDx=0;exitDy=0;entryX=1;entryY=0;entryDx=0;entryDy=0;labelBackgroundColor=default;strokeColor=default;strokeWidth=5;fontFamily=Helvetica;fontSize=11;fontColor=default;endArrow=classic;" edge="1" parent="1" source="y-h5g1hqfYsxv_BUcOza-10" target="y-h5g1hqfYsxv_BUcOza-14">
          <mxGeometry relative="1" as="geometry" />
        </mxCell>
        <mxCell id="y-h5g1hqfYsxv_BUcOza-9" style="rounded=0;orthogonalLoop=1;jettySize=auto;html=1;strokeWidth=5;" edge="1" parent="1" source="y-h5g1hqfYsxv_BUcOza-10" target="y-h5g1hqfYsxv_BUcOza-16">
          <mxGeometry relative="1" as="geometry" />
        </mxCell>
        <mxCell id="y-h5g1hqfYsxv_BUcOza-10" value="&lt;font style=&quot;font-size: 36px;&quot;&gt;2&lt;/font&gt;" style="ellipse;whiteSpace=wrap;html=1;aspect=fixed;strokeWidth=5;" vertex="1" parent="1">
          <mxGeometry x="55" y="750" width="80" height="80" as="geometry" />
        </mxCell>
        <mxCell id="y-h5g1hqfYsxv_BUcOza-11" style="edgeStyle=none;shape=connector;rounded=0;orthogonalLoop=1;jettySize=auto;html=1;labelBackgroundColor=default;strokeColor=default;strokeWidth=5;align=center;verticalAlign=middle;fontFamily=Helvetica;fontSize=11;fontColor=default;endArrow=classic;" edge="1" parent="1" source="y-h5g1hqfYsxv_BUcOza-13" target="y-h5g1hqfYsxv_BUcOza-18">
          <mxGeometry relative="1" as="geometry" />
        </mxCell>
        <mxCell id="y-h5g1hqfYsxv_BUcOza-12" style="edgeStyle=none;shape=connector;rounded=0;orthogonalLoop=1;jettySize=auto;html=1;labelBackgroundColor=default;strokeColor=default;strokeWidth=5;align=center;verticalAlign=middle;fontFamily=Helvetica;fontSize=11;fontColor=default;endArrow=classic;" edge="1" parent="1" source="y-h5g1hqfYsxv_BUcOza-13" target="y-h5g1hqfYsxv_BUcOza-19">
          <mxGeometry relative="1" as="geometry" />
        </mxCell>
        <mxCell id="y-h5g1hqfYsxv_BUcOza-13" value="9" style="ellipse;whiteSpace=wrap;html=1;aspect=fixed;strokeWidth=5;fontSize=40;fillColor=#d5e8d4;strokeColor=#82b366;" vertex="1" parent="1">
          <mxGeometry x="440" y="750" width="80" height="80" as="geometry" />
        </mxCell>
        <mxCell id="y-h5g1hqfYsxv_BUcOza-14" value="&lt;font style=&quot;font-size: 40px;&quot;&gt;1&lt;/font&gt;" style="ellipse;whiteSpace=wrap;html=1;aspect=fixed;strokeWidth=5;" vertex="1" parent="1">
          <mxGeometry x="-100" y="910" width="80" height="80" as="geometry" />
        </mxCell>
        <mxCell id="y-h5g1hqfYsxv_BUcOza-15" style="edgeStyle=none;shape=connector;rounded=0;orthogonalLoop=1;jettySize=auto;html=1;labelBackgroundColor=default;strokeColor=default;strokeWidth=5;align=center;verticalAlign=middle;fontFamily=Helvetica;fontSize=11;fontColor=default;endArrow=classic;" edge="1" parent="1" source="y-h5g1hqfYsxv_BUcOza-16" target="y-h5g1hqfYsxv_BUcOza-17">
          <mxGeometry relative="1" as="geometry" />
        </mxCell>
        <mxCell id="y-h5g1hqfYsxv_BUcOza-16" value="&lt;font style=&quot;font-size: 40px;&quot;&gt;5&lt;/font&gt;" style="ellipse;whiteSpace=wrap;html=1;aspect=fixed;strokeWidth=5;fillColor=#d5e8d4;strokeColor=#82b366;" vertex="1" parent="1">
          <mxGeometry x="140" y="920" width="80" height="80" as="geometry" />
        </mxCell>
        <mxCell id="y-h5g1hqfYsxv_BUcOza-17" value="&lt;font style=&quot;font-size: 40px;&quot;&gt;4&lt;/font&gt;" style="ellipse;whiteSpace=wrap;html=1;aspect=fixed;strokeWidth=5;fontFamily=Helvetica;fontSize=11;fontColor=default;" vertex="1" parent="1">
          <mxGeometry x="50" y="1060" width="80" height="80" as="geometry" />
        </mxCell>
        <mxCell id="y-h5g1hqfYsxv_BUcOza-18" value="8" style="ellipse;whiteSpace=wrap;html=1;aspect=fixed;strokeWidth=5;fontSize=40;fontFamily=Helvetica;fontColor=default;" vertex="1" parent="1">
          <mxGeometry x="330" y="900" width="80" height="80" as="geometry" />
        </mxCell>
        <mxCell id="y-h5g1hqfYsxv_BUcOza-19" value="10" style="ellipse;whiteSpace=wrap;html=1;aspect=fixed;strokeWidth=5;fontSize=40;fontFamily=Helvetica;fontColor=default;" vertex="1" parent="1">
          <mxGeometry x="540" y="890" width="80" height="80" as="geometry" />
        </mxCell>
        <mxCell id="y-h5g1hqfYsxv_BUcOza-20" value="&lt;font style=&quot;font-size: 42px;&quot;&gt;4) BST &lt;font style=&quot;font-size: 42px;&quot;&gt;Count Internal&lt;br&gt;&lt;/font&gt;&lt;/font&gt;" style="text;html=1;align=center;verticalAlign=middle;resizable=0;points=[];autosize=1;strokeColor=none;fillColor=none;" vertex="1" parent="1">
          <mxGeometry x="-130" y="3270" width="430" height="60" as="geometry" />
        </mxCell>
        <mxCell id="y-h5g1hqfYsxv_BUcOza-21" style="rounded=0;orthogonalLoop=1;jettySize=auto;html=1;exitX=0;exitY=1;exitDx=0;exitDy=0;entryX=1;entryY=0;entryDx=0;entryDy=0;strokeWidth=5;" edge="1" parent="1" source="y-h5g1hqfYsxv_BUcOza-23" target="y-h5g1hqfYsxv_BUcOza-26">
          <mxGeometry relative="1" as="geometry" />
        </mxCell>
        <mxCell id="y-h5g1hqfYsxv_BUcOza-22" style="rounded=0;orthogonalLoop=1;jettySize=auto;html=1;exitX=1;exitY=1;exitDx=0;exitDy=0;entryX=0;entryY=0;entryDx=0;entryDy=0;strokeWidth=5;" edge="1" parent="1" source="y-h5g1hqfYsxv_BUcOza-23" target="y-h5g1hqfYsxv_BUcOza-29">
          <mxGeometry relative="1" as="geometry" />
        </mxCell>
        <mxCell id="y-h5g1hqfYsxv_BUcOza-23" value="&lt;font style=&quot;font-size: 40px;&quot;&gt;7&lt;/font&gt;" style="ellipse;whiteSpace=wrap;html=1;aspect=fixed;strokeWidth=5;" vertex="1" parent="1">
          <mxGeometry x="280" y="3680" width="80" height="80" as="geometry" />
        </mxCell>
        <mxCell id="y-h5g1hqfYsxv_BUcOza-24" style="edgeStyle=none;shape=connector;rounded=0;orthogonalLoop=1;jettySize=auto;html=1;exitX=0;exitY=1;exitDx=0;exitDy=0;entryX=1;entryY=0;entryDx=0;entryDy=0;labelBackgroundColor=default;strokeWidth=5;fontFamily=Helvetica;fontSize=11;fontColor=default;endArrow=classic;" edge="1" parent="1" source="y-h5g1hqfYsxv_BUcOza-26" target="y-h5g1hqfYsxv_BUcOza-30">
          <mxGeometry relative="1" as="geometry" />
        </mxCell>
        <mxCell id="y-h5g1hqfYsxv_BUcOza-25" style="rounded=0;orthogonalLoop=1;jettySize=auto;html=1;strokeWidth=5;" edge="1" parent="1" source="y-h5g1hqfYsxv_BUcOza-26" target="y-h5g1hqfYsxv_BUcOza-32">
          <mxGeometry relative="1" as="geometry" />
        </mxCell>
        <mxCell id="y-h5g1hqfYsxv_BUcOza-26" value="&lt;font style=&quot;font-size: 36px;&quot;&gt;2&lt;/font&gt;" style="ellipse;whiteSpace=wrap;html=1;aspect=fixed;strokeWidth=5;" vertex="1" parent="1">
          <mxGeometry x="85" y="3840" width="80" height="80" as="geometry" />
        </mxCell>
        <mxCell id="y-h5g1hqfYsxv_BUcOza-27" style="edgeStyle=none;shape=connector;rounded=0;orthogonalLoop=1;jettySize=auto;html=1;labelBackgroundColor=default;strokeWidth=5;align=center;verticalAlign=middle;fontFamily=Helvetica;fontSize=11;fontColor=default;endArrow=classic;" edge="1" parent="1" source="y-h5g1hqfYsxv_BUcOza-29" target="y-h5g1hqfYsxv_BUcOza-34">
          <mxGeometry relative="1" as="geometry" />
        </mxCell>
        <mxCell id="y-h5g1hqfYsxv_BUcOza-28" style="edgeStyle=none;shape=connector;rounded=0;orthogonalLoop=1;jettySize=auto;html=1;labelBackgroundColor=default;strokeWidth=5;align=center;verticalAlign=middle;fontFamily=Helvetica;fontSize=11;fontColor=default;endArrow=classic;" edge="1" parent="1" source="y-h5g1hqfYsxv_BUcOza-29" target="y-h5g1hqfYsxv_BUcOza-35">
          <mxGeometry relative="1" as="geometry" />
        </mxCell>
        <mxCell id="y-h5g1hqfYsxv_BUcOza-29" value="9" style="ellipse;whiteSpace=wrap;html=1;aspect=fixed;strokeWidth=5;fontSize=40;" vertex="1" parent="1">
          <mxGeometry x="470" y="3840" width="80" height="80" as="geometry" />
        </mxCell>
        <mxCell id="y-h5g1hqfYsxv_BUcOza-30" value="&lt;font style=&quot;font-size: 40px;&quot;&gt;1&lt;/font&gt;" style="ellipse;whiteSpace=wrap;html=1;aspect=fixed;strokeWidth=5;" vertex="1" parent="1">
          <mxGeometry x="-70" y="4000" width="80" height="80" as="geometry" />
        </mxCell>
        <mxCell id="y-h5g1hqfYsxv_BUcOza-31" style="edgeStyle=none;shape=connector;rounded=0;orthogonalLoop=1;jettySize=auto;html=1;labelBackgroundColor=default;strokeWidth=5;align=center;verticalAlign=middle;fontFamily=Helvetica;fontSize=11;fontColor=default;endArrow=classic;" edge="1" parent="1" source="y-h5g1hqfYsxv_BUcOza-32" target="y-h5g1hqfYsxv_BUcOza-33">
          <mxGeometry relative="1" as="geometry" />
        </mxCell>
        <mxCell id="y-h5g1hqfYsxv_BUcOza-32" value="&lt;font style=&quot;font-size: 40px;&quot;&gt;5&lt;/font&gt;" style="ellipse;whiteSpace=wrap;html=1;aspect=fixed;strokeWidth=5;" vertex="1" parent="1">
          <mxGeometry x="170" y="4010" width="80" height="80" as="geometry" />
        </mxCell>
        <mxCell id="y-h5g1hqfYsxv_BUcOza-33" value="&lt;font style=&quot;font-size: 40px;&quot;&gt;4&lt;/font&gt;" style="ellipse;whiteSpace=wrap;html=1;aspect=fixed;strokeWidth=5;fontFamily=Helvetica;fontSize=11;" vertex="1" parent="1">
          <mxGeometry x="80" y="4150" width="80" height="80" as="geometry" />
        </mxCell>
        <mxCell id="y-h5g1hqfYsxv_BUcOza-34" value="8" style="ellipse;whiteSpace=wrap;html=1;aspect=fixed;strokeWidth=5;fontSize=40;fontFamily=Helvetica;" vertex="1" parent="1">
          <mxGeometry x="360" y="3990" width="80" height="80" as="geometry" />
        </mxCell>
        <mxCell id="y-h5g1hqfYsxv_BUcOza-35" value="10" style="ellipse;whiteSpace=wrap;html=1;aspect=fixed;strokeWidth=5;fontSize=40;fontFamily=Helvetica;" vertex="1" parent="1">
          <mxGeometry x="570" y="3980" width="80" height="80" as="geometry" />
        </mxCell>
        <mxCell id="y-h5g1hqfYsxv_BUcOza-36" value="&lt;font style=&quot;font-size: 28px;&quot;&gt;3&lt;/font&gt;" style="text;html=1;align=center;verticalAlign=middle;resizable=0;points=[];autosize=1;strokeColor=none;fillColor=none;" vertex="1" parent="1">
          <mxGeometry x="100" y="3395" width="40" height="50" as="geometry" />
        </mxCell>
        <mxCell id="y-h5g1hqfYsxv_BUcOza-37" value="" style="shape=table;startSize=0;container=1;collapsible=0;childLayout=tableLayout;fontSize=16;" vertex="1" parent="1">
          <mxGeometry x="-75" y="3450" width="775" height="90" as="geometry" />
        </mxCell>
        <mxCell id="y-h5g1hqfYsxv_BUcOza-38" value="" style="shape=tableRow;horizontal=0;startSize=0;swimlaneHead=0;swimlaneBody=0;strokeColor=inherit;top=0;left=0;bottom=0;right=0;collapsible=0;dropTarget=0;fillColor=none;points=[[0,0.5],[1,0.5]];portConstraint=eastwest;fontSize=16;" vertex="1" parent="y-h5g1hqfYsxv_BUcOza-37">
          <mxGeometry width="775" height="90" as="geometry" />
        </mxCell>
        <mxCell id="y-h5g1hqfYsxv_BUcOza-39" value="&lt;font style=&quot;font-size: 31px;&quot;&gt;1&lt;/font&gt;" style="shape=partialRectangle;html=1;whiteSpace=wrap;connectable=0;strokeColor=inherit;overflow=hidden;fillColor=none;top=0;left=0;bottom=0;right=0;pointerEvents=1;fontSize=16;" vertex="1" parent="y-h5g1hqfYsxv_BUcOza-38">
          <mxGeometry width="97" height="90" as="geometry">
            <mxRectangle width="97" height="90" as="alternateBounds" />
          </mxGeometry>
        </mxCell>
        <mxCell id="y-h5g1hqfYsxv_BUcOza-40" value="&lt;font style=&quot;font-size: 31px;&quot;&gt;2&lt;/font&gt;" style="shape=partialRectangle;html=1;whiteSpace=wrap;connectable=0;strokeColor=inherit;overflow=hidden;fillColor=none;top=0;left=0;bottom=0;right=0;pointerEvents=1;fontSize=16;" vertex="1" parent="y-h5g1hqfYsxv_BUcOza-38">
          <mxGeometry x="97" width="97" height="90" as="geometry">
            <mxRectangle width="97" height="90" as="alternateBounds" />
          </mxGeometry>
        </mxCell>
        <mxCell id="y-h5g1hqfYsxv_BUcOza-41" value="&lt;font style=&quot;font-size: 31px;&quot;&gt;4&lt;/font&gt;" style="shape=partialRectangle;html=1;whiteSpace=wrap;connectable=0;strokeColor=inherit;overflow=hidden;fillColor=none;top=0;left=0;bottom=0;right=0;pointerEvents=1;fontSize=16;" vertex="1" parent="y-h5g1hqfYsxv_BUcOza-38">
          <mxGeometry x="194" width="97" height="90" as="geometry">
            <mxRectangle width="97" height="90" as="alternateBounds" />
          </mxGeometry>
        </mxCell>
        <mxCell id="y-h5g1hqfYsxv_BUcOza-50" value="&lt;font style=&quot;font-size: 31px;&quot;&gt;5&lt;/font&gt;" style="shape=partialRectangle;html=1;whiteSpace=wrap;connectable=0;strokeColor=inherit;overflow=hidden;fillColor=none;top=0;left=0;bottom=0;right=0;pointerEvents=1;fontSize=16;" vertex="1" parent="y-h5g1hqfYsxv_BUcOza-38">
          <mxGeometry x="291" width="97" height="90" as="geometry">
            <mxRectangle width="97" height="90" as="alternateBounds" />
          </mxGeometry>
        </mxCell>
        <mxCell id="y-h5g1hqfYsxv_BUcOza-51" value="&lt;font style=&quot;font-size: 31px;&quot;&gt;7&lt;/font&gt;" style="shape=partialRectangle;html=1;whiteSpace=wrap;connectable=0;strokeColor=inherit;overflow=hidden;fillColor=none;top=0;left=0;bottom=0;right=0;pointerEvents=1;fontSize=16;" vertex="1" parent="y-h5g1hqfYsxv_BUcOza-38">
          <mxGeometry x="388" width="96" height="90" as="geometry">
            <mxRectangle width="96" height="90" as="alternateBounds" />
          </mxGeometry>
        </mxCell>
        <mxCell id="y-h5g1hqfYsxv_BUcOza-52" value="&lt;font style=&quot;font-size: 31px;&quot;&gt;8&lt;/font&gt;" style="shape=partialRectangle;html=1;whiteSpace=wrap;connectable=0;strokeColor=inherit;overflow=hidden;fillColor=none;top=0;left=0;bottom=0;right=0;pointerEvents=1;fontSize=16;" vertex="1" parent="y-h5g1hqfYsxv_BUcOza-38">
          <mxGeometry x="484" width="97" height="90" as="geometry">
            <mxRectangle width="97" height="90" as="alternateBounds" />
          </mxGeometry>
        </mxCell>
        <mxCell id="y-h5g1hqfYsxv_BUcOza-53" value="&lt;font style=&quot;font-size: 31px;&quot;&gt;9&lt;/font&gt;" style="shape=partialRectangle;html=1;whiteSpace=wrap;connectable=0;strokeColor=inherit;overflow=hidden;fillColor=none;top=0;left=0;bottom=0;right=0;pointerEvents=1;fontSize=16;" vertex="1" parent="y-h5g1hqfYsxv_BUcOza-38">
          <mxGeometry x="581" width="97" height="90" as="geometry">
            <mxRectangle width="97" height="90" as="alternateBounds" />
          </mxGeometry>
        </mxCell>
        <mxCell id="y-h5g1hqfYsxv_BUcOza-54" value="&lt;font style=&quot;font-size: 31px;&quot;&gt;10&lt;/font&gt;" style="shape=partialRectangle;html=1;whiteSpace=wrap;connectable=0;strokeColor=inherit;overflow=hidden;fillColor=none;top=0;left=0;bottom=0;right=0;pointerEvents=1;fontSize=16;" vertex="1" parent="y-h5g1hqfYsxv_BUcOza-38">
          <mxGeometry x="678" width="97" height="90" as="geometry">
            <mxRectangle width="97" height="90" as="alternateBounds" />
          </mxGeometry>
        </mxCell>
        <mxCell id="y-h5g1hqfYsxv_BUcOza-55" value="&lt;font style=&quot;font-size: 28px;&quot;&gt;6&lt;/font&gt;" style="text;html=1;align=center;verticalAlign=middle;resizable=0;points=[];autosize=1;strokeColor=none;fillColor=none;" vertex="1" parent="1">
          <mxGeometry x="300" y="3390" width="40" height="50" as="geometry" />
        </mxCell>
        <mxCell id="y-h5g1hqfYsxv_BUcOza-56" value="&lt;font style=&quot;font-size: 28px;&quot;&gt;11&lt;/font&gt;" style="text;html=1;align=center;verticalAlign=middle;resizable=0;points=[];autosize=1;strokeColor=none;fillColor=none;" vertex="1" parent="1">
          <mxGeometry x="690" y="3395" width="50" height="50" as="geometry" />
        </mxCell>
        <mxCell id="y-h5g1hqfYsxv_BUcOza-57" value="&lt;font style=&quot;font-size: 42px;&quot;&gt;Samples&lt;font style=&quot;font-size: 42px;&quot;&gt;&lt;br&gt;&lt;/font&gt;&lt;/font&gt;" style="text;html=1;align=center;verticalAlign=middle;resizable=0;points=[];autosize=1;strokeColor=none;fillColor=none;" vertex="1" parent="1">
          <mxGeometry x="-115" y="-430" width="190" height="60" as="geometry" />
        </mxCell>
      </root>
    </mxGraphModel>
  </diagram>
</mxfile>
